<svg width="240" height="196" viewBox="0 0 240 196" fill="none" xmlns="http://www.w3.org/2000/svg">
<g clip-path="url(#clip0)">
<path d="M116.923 177.689L6.60522 112.513C3.09322 110.539 0.0822204 107.304 3.50522 105.182L114.215 41.3929C115.875 40.3629 118.396 39.6879 120.088 40.6729L235.874 107.863C239.386 109.901 240.016 115.58 236.517 117.637L131.461 177.587C129.256 178.866 126.755 179.548 124.206 179.565C121.656 179.583 119.146 178.937 116.923 177.689Z" fill="#5B36A0"/>
<path d="M116.923 174.681L6.60522 109.503C3.09322 107.528 0.0822204 104.293 3.50522 102.171L114.215 38.3829C115.875 37.3539 118.396 36.6789 120.088 37.6629L235.874 104.853C239.386 106.892 240.016 112.57 236.517 114.628L131.461 174.577C129.256 175.856 126.755 176.538 124.206 176.556C121.657 176.574 119.147 175.927 116.923 174.68V174.681Z" fill="#6862E6"/>
<path style="mix-blend-mode:multiply" opacity="0.25" d="M126.019 88.6869L104.251 101.105C104.251 101.105 137.784 121.562 144.641 124.443L157.178 106.436" fill="url(#paint0_linear)"/>
<path style="mix-blend-mode:multiply" opacity="0.25" d="M118.499 148.263L96.7252 135.87L74.9512 148.288C74.9512 148.288 86.2912 155.208 97.1312 161.562C104.013 156.694 110.902 151.774 118.499 148.262V148.263Z" fill="url(#paint1_linear)"/>
<path style="mix-blend-mode:multiply" opacity="0.46" d="M71.5874 71.7349L57.7764 79.6129C57.7764 79.6129 58.9464 86.8349 65.8044 89.7159L83.8864 78.1399" fill="url(#paint2_linear)"/>
<path d="M78.3471 79.6129C82.9476 79.6129 86.6771 76.987 86.6771 73.7479C86.6771 70.5087 82.9476 67.8829 78.3471 67.8829C73.7466 67.8829 70.0171 70.5087 70.0171 73.7479C70.0171 76.987 73.7466 79.6129 78.3471 79.6129Z" fill="#68E1FD"/>
<path d="M78.3411 72.8409C81.7873 72.8409 84.5811 71.6979 84.5811 70.2879C84.5811 68.8779 81.7873 67.7349 78.3411 67.7349C74.8948 67.7349 72.1011 68.8779 72.1011 70.2879C72.1011 71.6979 74.8948 72.8409 78.3411 72.8409Z" fill="#974C26"/>
<path d="M78.1164 66.0309C78.1164 64.8799 78.0774 63.7279 77.9874 62.5769C77.9614 62.2769 77.9334 61.9789 77.9034 61.6829L77.8395 61.0979C77.8395 60.9249 77.7494 60.4549 77.7494 60.4999C77.7104 60.2639 77.6694 60.0299 77.6274 59.7999C76.947 55.8918 75.4285 52.1774 73.1765 48.9119C72.3289 50.9283 71.9061 53.0978 71.9344 55.2849C71.9344 55.9279 71.9855 56.5709 72.0375 57.1749V57.5549C72.2909 59.0467 72.6785 60.5127 73.1954 61.9349C73.564 62.9715 74.0133 63.9776 74.5394 64.9439C75.1072 66.0318 75.7232 67.0938 76.3855 68.1269C76.9005 68.9369 77.3895 69.6569 77.8855 70.3459C78.0395 68.9119 78.1094 67.4709 78.1154 66.0309H78.1164ZM74.8425 53.0849C74.8755 52.9367 74.8755 52.7831 74.8425 52.6349C75.0005 52.7979 75.1575 52.9649 75.3125 53.1369C75.1575 53.0928 74.9962 53.0752 74.8354 53.0849H74.8425Z" fill="#999A1C"/>
<path d="M80.2582 66.9179C80.9012 65.9479 81.4682 64.9879 82.0142 63.9409C82.1552 63.6749 82.2932 63.4089 82.4262 63.1429L82.6892 62.6089L82.9402 62.0559L83.2172 61.4129C84.7589 57.7546 85.4896 53.8056 85.3592 49.8379C83.5511 51.0759 82.0181 52.6739 80.8562 54.5319C80.5227 55.0679 80.2115 55.6173 79.9232 56.1789L79.7952 56.4159L79.7622 56.5189C79.6402 56.8089 79.5182 57.0989 79.4022 57.3939C78.9756 58.5144 78.6297 59.664 78.3672 60.8339C78.1166 61.9062 77.9508 62.9966 77.8712 64.0949C77.7576 65.3156 77.7019 66.5409 77.7042 67.7669C77.7042 68.7249 77.7042 69.5999 77.7622 70.4419C78.6172 69.3039 79.4792 68.1339 80.2582 66.9179ZM84.5032 54.2559C84.6042 54.1429 84.6792 54.0089 84.7222 53.8629C84.7692 54.0859 84.8102 54.3009 84.8442 54.5069C84.7442 54.4069 84.6292 54.3219 84.5042 54.2559H84.5032Z" fill="#999A1C"/>
<path d="M80.2134 69.7859C80.8604 69.4649 81.5034 69.1179 82.1434 68.7449L82.6254 68.4489L82.9405 68.2489L83.2494 68.0309L83.6094 67.7669C85.6204 66.2912 87.2882 64.3979 88.4984 62.2169C87.1254 62.305 85.7852 62.675 84.5615 63.3039C84.2075 63.4839 83.8664 63.6839 83.5254 63.8889L83.3784 63.9789L83.3265 64.0239L82.8504 64.3779C82.2574 64.8449 81.6985 65.3549 81.1784 65.9019C80.6974 66.3999 80.2565 66.9359 79.8585 67.5029C79.412 68.1342 78.9832 68.7778 78.5724 69.4329C78.2644 69.9469 77.9875 70.4289 77.7425 70.8989C78.5725 70.5519 79.4024 70.1909 80.2124 69.7859H80.2134ZM86.5935 64.3199C86.6846 64.2916 86.7682 64.2435 86.8384 64.1789C86.7916 64.3155 86.7402 64.4506 86.6844 64.5839C86.6677 64.4941 86.6373 64.4075 86.5944 64.3269V64.3199H86.5935ZM78.1164 66.0309C78.1164 64.8799 78.0774 63.7279 77.9874 62.5769C77.9614 62.2769 77.9334 61.9789 77.9034 61.6829L77.8395 61.0979C77.8395 60.9249 77.7494 60.4549 77.7494 60.4999C77.7104 60.2639 77.6694 60.0299 77.6274 59.7999C76.947 55.8918 75.4285 52.1774 73.1765 48.9119C72.3289 50.9283 71.9061 53.0978 71.9344 55.2849C71.9344 55.9279 71.9855 56.5709 72.0375 57.1749V57.5549C72.2909 59.0467 72.6785 60.5127 73.1954 61.9349C73.564 62.9715 74.0133 63.9776 74.5394 64.9439C75.1072 66.0318 75.7232 67.0938 76.3855 68.1269C76.9005 68.9369 77.3895 69.6569 77.8855 70.3459C78.0395 68.9119 78.1094 67.4709 78.1154 66.0309H78.1164ZM74.8425 53.0849C74.8755 52.9367 74.8755 52.7831 74.8425 52.6349C75.0005 52.7979 75.1575 52.9649 75.3125 53.1369C75.1575 53.0928 74.9962 53.0752 74.8354 53.0849H74.8425Z" fill="#999A1C"/>
<path d="M80.2582 66.9179C80.9012 65.9479 81.4682 64.9879 82.0142 63.9409C82.1552 63.6749 82.2932 63.4089 82.4262 63.1429L82.6892 62.6089L82.9402 62.0559L83.2172 61.4129C84.7589 57.7546 85.4896 53.8056 85.3592 49.8379C83.5511 51.0759 82.0181 52.6739 80.8562 54.5319C80.5227 55.0679 80.2115 55.6173 79.9232 56.1789L79.7952 56.4159L79.7622 56.5189C79.6402 56.8089 79.5182 57.0989 79.4022 57.3939C78.9756 58.5144 78.6297 59.664 78.3672 60.8339C78.1166 61.9062 77.9508 62.9966 77.8712 64.0949C77.7576 65.3156 77.7019 66.5409 77.7042 67.7669C77.7042 68.7249 77.7042 69.5999 77.7622 70.4419C78.6172 69.3039 79.4792 68.1339 80.2582 66.9179ZM84.5032 54.2559C84.6042 54.1429 84.6792 54.0089 84.7222 53.8629C84.7692 54.0859 84.8102 54.3009 84.8442 54.5069C84.7442 54.4069 84.6292 54.3219 84.5042 54.2559H84.5032Z" fill="#999A1C"/>
<path d="M80.2132 69.7859C80.8602 69.4649 81.5032 69.1179 82.1432 68.7449L82.6252 68.4489L82.9402 68.2489L83.2492 68.0309L83.6092 67.7669C85.6201 66.2912 87.288 64.3979 88.4982 62.2169C87.1251 62.305 85.7849 62.675 84.5612 63.3039C84.2072 63.4839 83.8662 63.6839 83.5252 63.8889L83.3782 63.9789L83.3262 64.0239L82.8502 64.3779C82.2572 64.8449 81.6982 65.3549 81.1782 65.9019C80.6972 66.3999 80.2562 66.9359 79.8582 67.5029C79.4118 68.1342 78.9829 68.7778 78.5722 69.4329C78.2642 69.9469 77.9872 70.4289 77.7422 70.8989C78.5722 70.5519 79.4022 70.1909 80.2122 69.7859H80.2132ZM86.5932 64.3199C86.6843 64.2916 86.768 64.2435 86.8382 64.1789C86.7913 64.3155 86.74 64.4506 86.6842 64.5839C86.6674 64.4941 86.637 64.4075 86.5942 64.3269V64.3199H86.5932Z" fill="#999A1C"/>
<path d="M134.664 83.8379L122.616 89.6259C122.162 89.8441 121.777 90.1818 121.5 90.6026C121.224 91.0235 121.067 91.5117 121.048 92.0148C121.028 92.5179 121.145 93.017 121.388 93.4583C121.63 93.8996 121.988 94.2666 122.423 94.5199L150.977 111.176C151.594 111.537 152.327 111.645 153.022 111.478C153.717 111.312 154.321 110.883 154.708 110.282L161.648 99.4909" fill="#A1482D"/>
<path d="M200.193 55.9209L104.123 0.576882C103.464 0.19802 102.717 -0.000922181 101.957 3.21371e-06C101.197 0.000928608 100.45 0.201689 99.7918 0.582154C99.1337 0.96262 98.5872 1.50942 98.2071 2.16772C97.8269 2.82603 97.6265 3.5727 97.626 4.33288V61.9079C97.626 63.1949 98.312 64.3839 99.426 65.0279L201.846 124.134C202.199 124.338 202.6 124.446 203.008 124.446C203.416 124.446 203.817 124.339 204.171 124.135C204.524 123.931 204.817 123.637 205.021 123.283C205.225 122.93 205.332 122.529 205.332 122.121V64.7829C205.33 62.9842 204.854 61.2177 203.952 59.6617C203.049 58.1058 201.753 56.8154 200.192 55.9209H200.193Z" fill="#F47B56"/>
<path d="M104.129 4.93089L197.298 58.5189C198.293 59.0915 199.12 59.9162 199.695 60.9098C200.269 61.9035 200.572 63.031 200.572 64.1789V107.336C200.572 107.749 200.463 108.155 200.256 108.512C200.05 108.87 199.753 109.167 199.395 109.374C199.038 109.581 198.632 109.691 198.219 109.692C197.806 109.693 197.4 109.586 197.041 109.381L102.025 54.8989C101.67 54.695 101.374 54.4008 101.169 54.0461C100.964 53.6914 100.855 53.2888 100.855 52.8789V6.82789C100.855 6.44457 100.956 6.06795 101.147 5.73579C101.339 5.40364 101.614 5.12763 101.946 4.93546C102.277 4.74329 102.654 4.64171 103.037 4.6409C103.42 4.6401 103.797 4.74011 104.129 4.93089Z" fill="white"/>
<path d="M143.331 86.3331C144.43 86.1215 145.124 84.9322 144.882 83.6768C144.641 82.4213 143.554 81.5751 142.455 81.7866C141.357 81.9982 140.662 83.1875 140.904 84.443C141.145 85.6985 142.232 86.5447 143.331 86.3331Z" fill="#AB643C"/>
<path opacity="0.32" d="M129.171 63.4839L172.468 89.4909L193.857 77.0599L155.641 54.8219" fill="url(#paint3_linear)"/>
<path d="M182.677 58.3069L135.867 29.7729C135.616 29.6281 135.332 29.553 135.042 29.5555C134.753 29.5579 134.47 29.6378 134.221 29.7868C133.973 29.9358 133.77 30.1485 133.632 30.4028C133.493 30.6571 133.426 30.9437 133.436 31.2329V47.4899C133.434 47.7841 133.508 48.0739 133.651 48.331C133.794 48.5881 134.002 48.8037 134.253 48.9569L181.056 76.8869C181.302 77.0265 181.581 77.099 181.863 77.0972C182.146 77.0954 182.424 77.0193 182.668 76.8765C182.912 76.7337 183.115 76.5293 183.255 76.2836C183.396 76.038 183.469 75.7598 183.468 75.4769L183.712 60.3199C183.73 59.9232 183.644 59.5287 183.463 59.1756C183.281 58.8225 183.01 58.523 182.677 58.3069Z" fill="#E2AC00"/>
<path d="M171.478 66.6729C173.157 69.0209 176.109 69.6769 178.065 68.1459C180.02 66.6159 180.245 63.4709 178.566 61.1299C176.887 58.7899 173.935 58.1269 171.979 59.6579C170.024 61.1879 169.799 64.3269 171.478 66.6739V66.6729Z" fill="white"/>
<path d="M166.885 55.4069L147.793 43.9149C147.63 43.8399 147.444 43.8283 147.272 43.8823C147.101 43.9364 146.955 44.0522 146.864 44.2074C146.773 44.3626 146.742 44.5461 146.778 44.7224C146.815 44.8988 146.915 45.0554 147.06 45.1619L166.152 56.6539C166.316 56.7289 166.502 56.7405 166.673 56.6864C166.845 56.6324 166.991 56.5166 167.082 56.3614C167.173 56.2062 167.204 56.0226 167.167 55.8463C167.131 55.67 167.03 55.5134 166.885 55.4069ZM166.1 60.0759L139.785 44.2359C139.624 44.1792 139.448 44.1812 139.288 44.2415C139.128 44.3017 138.995 44.4164 138.911 44.5654C138.827 44.7143 138.798 44.8881 138.83 45.056C138.861 45.224 138.951 45.3755 139.083 45.4839L165.367 61.3299C165.531 61.4061 165.718 61.4185 165.89 61.3647C166.063 61.3109 166.209 61.1947 166.301 61.0389C166.392 60.883 166.422 60.6986 166.385 60.5216C166.348 60.3447 166.247 60.1879 166.1 60.0819V60.0759Z" fill="#F2F2F2"/>
<path d="M173.337 61.4579L126.553 32.9309C126.303 32.7858 126.018 32.7106 125.728 32.7129C125.439 32.7152 125.155 32.795 124.907 32.944C124.659 33.0931 124.455 33.3058 124.317 33.5603C124.178 33.8147 124.111 34.1015 124.121 34.3909V50.6409C124.114 51.2409 124.421 51.7999 124.931 52.1139L171.735 80.0439C171.984 80.1866 172.266 80.2607 172.552 80.2585C172.839 80.2562 173.119 80.1778 173.366 80.0312C173.612 79.8847 173.815 79.6752 173.953 79.4244C174.092 79.1735 174.161 78.8903 174.154 78.6039L174.398 63.4449C174.409 63.0501 174.317 62.6593 174.131 62.3109C173.945 61.9625 173.671 61.6686 173.337 61.4579Z" fill="#F47B56"/>
<path d="M162.138 69.8249C163.817 72.1719 166.769 72.8279 168.725 71.2979C170.68 69.7679 170.905 66.6219 169.226 64.2809C167.547 61.9409 164.595 61.2779 162.639 62.8089C160.684 64.3389 160.459 67.4779 162.138 69.8249Z" fill="white"/>
<path d="M157.545 58.5579L138.439 47.0659C138.275 46.9896 138.089 46.9772 137.916 47.031C137.744 47.0848 137.597 47.201 137.506 47.3569C137.414 47.5128 137.384 47.6972 137.421 47.8741C137.458 48.0511 137.56 48.2078 137.706 48.3139L156.798 59.8059C156.962 59.8821 157.149 59.8945 157.321 59.8407C157.494 59.7869 157.64 59.6707 157.732 59.5149C157.823 59.359 157.853 59.1746 157.816 58.9976C157.779 58.8207 157.678 58.6639 157.531 58.5579H157.544H157.545ZM156.754 63.2589L130.444 47.3939C130.28 47.3176 130.094 47.3052 129.921 47.359C129.749 47.4128 129.602 47.529 129.511 47.6849C129.419 47.8408 129.389 48.0252 129.426 48.2021C129.463 48.3791 129.565 48.5358 129.711 48.6419L156.027 64.4809C156.191 64.5571 156.378 64.5695 156.55 64.5157C156.723 64.4619 156.869 64.3457 156.961 64.1899C157.052 64.034 157.082 63.8496 157.045 63.6726C157.008 63.4957 156.907 63.3389 156.76 63.2329L156.754 63.2589Z" fill="#F2F2F2"/>
<path d="M161.597 63.3749L114.801 34.8469C114.551 34.7019 114.266 34.6266 113.976 34.6289C113.687 34.6312 113.403 34.711 113.155 34.86C112.907 35.0091 112.703 35.2219 112.565 35.4763C112.426 35.7307 112.359 36.0175 112.369 36.3069V52.5579C112.367 52.852 112.442 53.1415 112.585 53.3984C112.728 53.6553 112.935 53.8708 113.186 54.0239L159.989 81.9539C160.238 82.0966 160.52 82.1707 160.806 82.1685C161.093 82.1663 161.374 82.0878 161.62 81.9412C161.866 81.7947 162.069 81.5852 162.207 81.3344C162.346 81.0835 162.415 80.8004 162.408 80.5139L162.652 65.3549C162.673 64.5549 162.272 63.8039 161.597 63.3749Z" fill="#68E1FD"/>
<path d="M161.597 63.3749L114.801 34.8469C114.551 34.7019 114.266 34.6266 113.976 34.6289C113.687 34.6312 113.403 34.711 113.155 34.86C112.907 35.0091 112.703 35.2219 112.565 35.4763C112.426 35.7307 112.359 36.0175 112.369 36.3069V52.5579C112.367 52.852 112.442 53.1415 112.585 53.3984C112.728 53.6553 112.935 53.8708 113.186 54.0239L159.989 81.9539C160.238 82.0966 160.52 82.1707 160.806 82.1685C161.093 82.1663 161.374 82.0878 161.62 81.9412C161.866 81.7947 162.069 81.5852 162.207 81.3344C162.346 81.0835 162.415 80.8004 162.408 80.5139L162.652 65.3549C162.673 64.5549 162.272 63.8039 161.597 63.3749Z" fill="#68E1FD"/>
<path d="M150.392 71.7409C152.071 74.0889 155.023 74.7449 156.979 73.2139C158.934 71.6839 159.159 68.5389 157.48 66.1979C155.802 63.8579 152.849 63.1949 150.894 64.7249C148.938 66.2549 148.732 69.3949 150.392 71.7409Z" fill="white"/>
<path d="M145.799 60.4739L126.701 48.9829C126.537 48.9057 126.35 48.8927 126.177 48.9462C126.004 48.9997 125.857 49.116 125.765 49.2722C125.673 49.4284 125.643 49.6133 125.68 49.7907C125.718 49.968 125.82 50.125 125.967 50.2309L145.059 61.7229C145.223 61.8 145.41 61.8131 145.583 61.7596C145.757 61.7061 145.903 61.5898 145.995 61.4336C146.087 61.2773 146.117 61.0924 146.08 60.9151C146.043 60.7377 145.94 60.5807 145.793 60.4749H145.799V60.4739ZM145.008 65.1499L118.692 49.3099C118.528 49.2337 118.342 49.2212 118.169 49.275C117.997 49.3288 117.85 49.445 117.759 49.6009C117.667 49.7568 117.637 49.9412 117.674 50.1181C117.711 50.2951 117.813 50.4518 117.959 50.5579L144.274 66.3979C144.438 66.475 144.625 66.4881 144.798 66.4346C144.972 66.3811 145.118 66.2648 145.21 66.1086C145.302 65.9523 145.332 65.7674 145.295 65.5901C145.258 65.4127 145.155 65.2557 145.008 65.1499Z" fill="#F2F2F2"/>
<path d="M100.179 61.7799C97.1553 64.3818 94.8683 67.7327 93.5472 71.4969C91.2192 77.9269 97.0402 88.4359 97.0402 88.4359L106.097 81.2659" fill="#FF8F6F"/>
<path d="M99.2021 146.803L96.7441 145.446L97.3881 141.935C97.3881 141.935 101.048 142.282 101.369 143.581" fill="#003B94"/>
<path d="M100.102 146.751C100.655 146.411 101.234 146.108 101.807 145.806C103.228 145.028 105.28 144.224 106.155 142.764C106.334 142.469 106.419 142.126 106.399 141.781C106.378 141.437 106.252 141.106 106.039 140.835C104.753 139.279 101.935 141.838 100.495 140.115C100.212 139.774 100.076 134.365 100.076 134.365L94.5961 135.845C94.5961 135.845 93.6701 146.713 93.7731 147.382C93.8751 148.05 95.7601 148.668 95.7601 148.668C96.3216 148.549 96.8576 148.331 97.3431 148.025C97.9151 147.607 97.3941 142.507 98.1271 143.221C98.8611 143.935 99.1821 146.726 99.1821 146.726C99.4871 146.772 99.7961 146.78 100.102 146.751Z" fill="#F47B56"/>
<path d="M109.667 152.057L107.21 150.719L107.853 147.208C107.853 147.208 111.513 147.555 111.835 148.854" fill="#003B94"/>
<path d="M110.594 152.005C111.147 151.665 111.726 151.362 112.298 151.06C113.72 150.282 115.772 149.478 116.647 148.018C116.827 147.723 116.912 147.38 116.891 147.035C116.87 146.691 116.745 146.36 116.531 146.089C115.244 144.533 112.427 147.092 110.986 145.369C110.703 145.028 110.568 139.619 110.568 139.619L105.088 141.099C105.088 141.099 104.155 152.005 104.258 152.649C104.36 153.292 106.245 153.935 106.245 153.935C106.807 153.816 107.343 153.598 107.828 153.292C108.4 152.874 107.879 147.774 108.612 148.488C109.346 149.202 109.667 151.993 109.667 151.993C109.974 152.035 110.286 152.039 110.594 152.005Z" fill="#F47B56"/>
<path d="M91.8113 116.726L90.1963 138.314C90.1963 138.314 92.7693 141.864 101.396 139.89L101.479 125.337L91.8113 116.726ZM101.775 121.003C101.588 122.861 101.775 143.363 101.775 143.363C101.775 143.363 104.161 147.825 114.55 143.363L114.402 125.941" fill="#3E2928"/>
<path d="M91.0073 123.857C91.7143 124.347 91.9593 121.832 92.6983 122.263C95.3898 123.826 98.2462 125.085 101.215 126.018H101.279C101.35 125.983 101.427 125.964 101.506 125.96C101.584 125.956 101.663 125.968 101.737 125.995C101.811 126.022 101.879 126.063 101.936 126.117C101.993 126.171 102.039 126.236 102.071 126.308C103.905 126.855 105.771 127.284 107.661 127.594C110.085 127.98 112.092 126.185 114.581 126.064C114.581 116.533 114.627 89.4069 110.568 83.6189L98.5583 79.5809C98.5003 80.5709 92.7303 87.2589 92.8723 95.4139C93.0323 104.604 91.8363 113.272 91.6303 116.147C91.5983 116.636 91.0323 123.337 91.0073 123.857Z" fill="#3E2928"/>
<path d="M111.674 72.6609L110.568 83.5939C110.568 83.5939 101.608 83.9539 97.748 81.2909V72.0179" fill="#FF8F6F"/>
<path d="M123.066 65.4649L122.153 66.7119C122.64 65.6972 123.069 64.6558 123.439 63.5929C123.697 62.8669 122.532 62.5769 122.275 63.3039L122.14 63.6769C122.252 63.2909 122.357 62.9029 122.455 62.5129C122.477 62.4357 122.482 62.3549 122.472 62.2755C122.462 62.196 122.436 62.1194 122.395 62.0502C122.355 61.981 122.301 61.9206 122.237 61.8725C122.173 61.8244 122.1 61.7897 122.022 61.7703C121.944 61.7509 121.863 61.7473 121.784 61.7597C121.705 61.7721 121.629 61.8002 121.561 61.8424C121.493 61.8846 121.434 61.94 121.388 62.0053C121.341 62.0707 121.309 62.1446 121.291 62.2229C121.039 63.2324 120.736 64.2286 120.384 65.2079C120.581 64.3386 120.723 63.4579 120.809 62.5709C120.886 61.8059 119.683 61.8379 119.612 62.5709C119.512 63.5809 119.332 64.5809 119.072 65.5609C119.072 65.2156 119.039 64.8711 118.975 64.5319C118.966 64.4466 118.94 64.3641 118.897 64.29C118.853 64.2158 118.795 64.1517 118.725 64.1019C118.693 63.9669 118.654 63.8334 118.609 63.7019C118.564 63.5671 118.472 63.4527 118.351 63.3787C118.229 63.3048 118.085 63.276 117.945 63.2975C117.804 63.319 117.675 63.3894 117.582 63.4962C117.488 63.6031 117.434 63.7396 117.431 63.8819L117.354 68.3839C117.136 68.8509 116.853 69.2839 116.512 69.6709C117.09 70.0709 117.649 70.5009 118.184 70.9569C118.662 71.3599 119.117 71.7899 119.548 72.2429C119.934 71.7629 120.305 71.2739 120.661 70.7769C120.705 70.7392 120.744 70.6959 120.776 70.6479C121.848 69.0626 122.955 67.5015 124.096 65.9659C124.572 65.4389 123.523 64.8539 123.066 65.4649Z" fill="#FFB5A9"/>
<path d="M105.988 62.6929C105.988 62.6929 110.221 63.8309 111.938 66.5519C113.014 68.4344 113.962 70.3872 114.775 72.3969L117.901 67.5419C117.901 67.5419 121.696 68.7059 123.201 70.5709C123.201 70.5709 118.699 80.4109 114.775 81.2529C110.851 82.0949 106.683 75.4779 106.683 75.4779C106.683 75.4779 105.821 78.2429 105.988 75.2909" fill="#FF8F6F"/>
<path d="M108.677 73.2079C107.447 72.2073 106.518 70.8849 105.994 69.3879C105.486 67.6579 106.123 66.1399 106.714 64.5319C107.355 62.9383 107.729 61.25 107.821 59.5349C107.873 57.8509 107.68 56.1649 107.564 54.4869C107.548 54.4151 107.548 54.3406 107.564 54.2689C106.998 52.3709 105.84 50.7639 103.556 50.5709C97.6453 50.0689 97.3103 56.6159 97.3563 59.2779C97.4003 61.9409 97.6843 63.7409 95.7223 64.8539C93.7603 65.9659 92.3443 68.8859 94.2163 71.2459C96.0883 73.6059 94.4093 72.7449 93.1613 74.8409C91.9143 76.9379 92.2353 79.5549 94.7953 80.5009C97.3553 81.4459 109.255 79.6709 110.349 78.5709C110.738 78.1278 110.938 77.5512 110.909 76.9629C110.642 75.4831 109.85 74.1496 108.677 73.2079Z" fill="#007F68"/>
<path d="M114.492 19.2129C115.494 20.6546 116.073 22.3476 116.164 24.1009C116.276 24.9036 116.081 25.719 115.617 26.3839C115.42 26.6007 115.156 26.7457 114.867 26.7959C114.578 26.846 114.281 26.7985 114.022 26.6609C113.697 26.531 113.403 26.3333 113.16 26.0809C112.942 25.8764 112.755 25.6404 112.607 25.3809L112.453 25.0789C112.411 25.1579 112.359 25.2309 112.298 25.2969C112.145 25.4169 111.963 25.4939 111.771 25.5219C111.449 25.5819 111.117 25.5419 110.819 25.4069C110.108 25.0992 109.516 24.5685 109.133 23.8949C108.672 23.1635 108.414 22.3222 108.387 21.4579C108.292 20.7579 108.511 20.0519 108.985 19.5279C109.189 19.3313 109.449 19.2024 109.728 19.1587C110.008 19.115 110.295 19.1587 110.549 19.2839C110.807 19.3869 111.044 19.5349 111.249 19.7219C111.425 19.8709 111.581 20.0419 111.713 20.2299L111.829 20.4359V19.8629L113.115 20.3649L113.244 23.9789C113.253 24.2379 113.333 24.4889 113.475 24.7059C113.596 24.9149 113.781 25.0789 114.003 25.1759C114.625 25.4199 114.912 24.8839 114.865 23.5669C114.8 22.2634 114.37 21.0044 113.623 19.9339C112.952 18.8447 111.955 17.9945 110.773 17.5039C110.344 17.2861 109.86 17.2021 109.383 17.2627C108.906 17.3233 108.459 17.5258 108.098 17.8439C107.714 18.2298 107.421 18.6971 107.242 19.2114C107.062 19.7257 107.001 20.2737 107.062 20.8149C107.136 22.1937 107.58 23.527 108.349 24.6739C108.961 25.8066 109.925 26.7094 111.095 27.2459C111.503 27.4159 111.94 27.5009 112.382 27.4959C112.669 27.5159 112.957 27.4629 113.218 27.3419L113.475 27.2009L114.254 28.6479L114.125 28.7379C114.003 28.8059 113.876 28.8669 113.745 28.9179C113.54 29.0069 113.324 29.0679 113.102 29.0979C112.818 29.1359 112.531 29.1359 112.247 29.0979C111.874 29.0533 111.509 28.9602 111.16 28.8209C110.17 28.3951 109.29 27.7487 108.587 26.9309C107.755 26.0107 107.081 24.9588 106.593 23.8179C106.104 22.7287 105.825 21.5573 105.769 20.3649C105.7 19.3624 105.904 18.36 106.361 17.4649C106.74 16.7136 107.395 16.1376 108.188 15.8569C109.019 15.5831 109.923 15.6287 110.722 15.9849C112.283 16.6445 113.6 17.7728 114.492 19.2139V19.2129ZM111.655 23.7859C111.866 23.5159 111.961 23.1739 111.919 22.8339C111.909 22.4146 111.791 22.0049 111.578 21.6439C111.403 21.3288 111.13 21.0802 110.799 20.9369C110.672 20.8718 110.529 20.8468 110.388 20.8652C110.247 20.8836 110.115 20.9446 110.009 21.0399C109.898 21.1661 109.815 21.3146 109.766 21.4756C109.717 21.6365 109.703 21.8061 109.725 21.9729C109.74 22.3969 109.866 22.8089 110.092 23.1689C110.277 23.4949 110.564 23.7529 110.909 23.9019C111.156 24.0289 111.457 23.9819 111.655 23.7859ZM190.441 88.8479C191.444 90.2885 192.024 91.9816 192.113 93.7349C192.225 94.5375 192.03 95.3529 191.567 96.0179C191.369 96.2341 191.105 96.3785 190.816 96.4287C190.527 96.4788 190.23 96.4317 189.971 96.2949C189.647 96.1632 189.353 95.9657 189.109 95.7149C188.892 95.5093 188.706 95.2736 188.556 95.0149L188.402 94.7129C188.358 94.7909 188.306 94.864 188.247 94.9309C188.095 95.0509 187.913 95.1299 187.72 95.1559C187.401 95.2199 187.07 95.1819 186.774 95.0469C186.062 94.7375 185.471 94.2046 185.089 93.5289C184.623 92.7969 184.363 91.953 184.336 91.0859C184.237 90.3859 184.456 89.6779 184.935 89.1559C185.138 88.9601 185.396 88.8316 185.674 88.7879C185.953 88.7443 186.238 88.7875 186.491 88.9119C186.749 89.0139 186.987 89.1619 187.192 89.3489C187.368 89.5009 187.523 89.6739 187.656 89.8639L187.778 90.0689V89.4969L189.064 89.9919L189.193 93.6059C189.204 93.8649 189.284 94.1159 189.424 94.3329C189.545 94.5429 189.73 94.7069 189.952 94.8029C190.595 95.0469 190.859 94.5129 190.82 93.1949C190.755 91.8894 190.325 90.6283 189.579 89.5549C188.908 88.4696 187.914 87.6219 186.736 87.1309C186.308 86.9129 185.824 86.8282 185.347 86.8877C184.87 86.9473 184.422 87.1483 184.06 87.4649C183.678 87.8552 183.388 88.3268 183.213 88.8445C183.039 89.3622 182.983 89.9126 183.05 90.4549C183.122 91.8338 183.566 93.1674 184.336 94.3139C184.972 95.4199 185.947 96.2924 187.116 96.8029C187.523 96.9729 187.96 97.0599 188.402 97.0599C188.689 97.0769 188.976 97.0239 189.238 96.9049L189.495 96.7639L190.274 98.2109L190.144 98.3009C190.023 98.3699 189.896 98.4299 189.765 98.4809C189.559 98.566 189.343 98.6265 189.122 98.6609C188.836 98.6988 188.546 98.6988 188.26 98.6609C187.889 98.6139 187.526 98.5188 187.18 98.3779C186.19 97.9538 185.31 97.3095 184.607 96.4939C183.774 95.5714 183.1 94.5171 182.612 93.3739C182.124 92.285 181.844 91.114 181.789 89.9219C181.719 88.9213 181.924 87.9207 182.381 87.0279C182.761 86.2756 183.415 85.6976 184.208 85.4129C185.042 85.1424 185.946 85.1886 186.748 85.5429C188.291 86.2366 189.581 87.3912 190.441 88.8479ZM187.604 93.4199C187.817 93.1509 187.914 92.8089 187.874 92.4679C187.863 92.0479 187.743 91.638 187.527 91.2779C187.356 90.9627 187.084 90.7138 186.755 90.5709C186.629 90.5048 186.486 90.4787 186.344 90.496C186.203 90.5134 186.07 90.5733 185.964 90.6679C185.851 90.793 185.767 90.9411 185.717 91.102C185.667 91.2629 185.652 91.4328 185.674 91.5999C185.689 92.0219 185.816 92.4329 186.041 92.7899C186.226 93.1179 186.513 93.3779 186.858 93.5299C186.978 93.5924 187.115 93.6155 187.249 93.5957C187.383 93.576 187.507 93.5144 187.604 93.4199Z" fill="#F47B56"/>
<path style="mix-blend-mode:multiply" opacity="0.25" d="M62.2534 116.269L40.4794 103.883L18.7114 116.295C18.7114 116.295 30.8244 123.857 41.6624 130.211C48.5454 125.349 54.6624 119.787 62.2534 116.269Z" fill="url(#paint4_linear)"/>
<g filter="url(#filter0_d)">
<path d="M22.9292 81.4709V108.406L43.9132 120.423L67.6072 106.41V79.4759" fill="black"/>
</g>
<path d="M22.9292 81.4709V108.406L43.9132 120.423L67.6072 106.41V79.4759" fill="#FF9271"/>
<path d="M43.9131 93.4889V120.424L67.6071 106.411V79.4759L43.9131 93.4889Z" fill="#DF5C34"/>
<path d="M22.9292 81.4709L47.2762 67.5929L67.6062 79.4759L43.9132 93.4889L22.9292 81.4709Z" fill="#F47B56"/>
<path d="M44.4702 73.7749C46.939 73.6083 49.404 74.1513 51.5742 75.3399C52.8172 76.0709 53.4962 76.8339 53.5922 77.6299C53.6882 78.4249 53.2782 79.1169 52.3112 79.6999C51.8524 79.9834 51.3469 80.1831 50.8182 80.2899C50.3842 80.3929 49.9382 80.4389 49.4922 80.4249L49.0052 80.3869C49.0512 80.4959 49.0812 80.6099 49.0952 80.7269C49.0801 81.0036 48.9917 81.2714 48.8392 81.5029C48.5852 81.9329 48.2232 82.2889 47.7892 82.5349C46.7769 83.1364 45.6166 83.4429 44.4392 83.4199C43.2209 83.4529 42.017 83.1491 40.9602 82.5419C39.9612 81.9519 39.4492 81.2589 39.4102 80.4639C39.4141 80.0429 39.5362 79.6315 39.7627 79.2766C39.9893 78.9217 40.311 78.6376 40.6912 78.4569C41.0563 78.2291 41.4538 78.0581 41.8702 77.9499C42.202 77.8541 42.5435 77.7961 42.8882 77.7769H43.2412L42.6002 77.3919L44.4002 76.2699L48.5702 78.7259C48.8891 78.8976 49.2456 78.9875 49.6077 78.9875C49.9699 78.9875 50.3264 78.8976 50.6452 78.7259C51.5292 78.1749 51.2132 77.4499 49.6972 76.5519C48.0861 75.6645 46.2546 75.2571 44.4192 75.3779C42.474 75.4018 40.5711 75.9489 38.9102 76.9619C37.3992 77.9069 36.6502 79.0339 36.6622 80.3419C36.6622 81.6249 37.4622 82.7659 39.0192 83.6829C40.7192 84.6329 42.6482 85.0929 44.5922 85.0109C46.5285 85.0427 48.4356 84.5366 50.1012 83.5489C50.6774 83.207 51.1942 82.7737 51.6312 82.2659C51.9242 81.9559 52.1432 81.5829 52.2722 81.1759L52.3622 80.7719L54.7382 80.9059C54.7422 80.9789 54.7422 81.0519 54.7382 81.1249C54.6952 81.3209 54.6372 81.5139 54.5652 81.7019C54.4622 82.0019 54.3252 82.2919 54.1552 82.5609C53.9112 82.9249 53.6282 83.2609 53.3102 83.5609C52.8902 83.9659 52.4302 84.3229 51.9332 84.6259C50.5032 85.4843 48.9192 86.055 47.2702 86.3059C45.4732 86.6198 43.6382 86.6521 41.8312 86.4019C40.1886 86.2085 38.6011 85.6897 37.1612 84.8759C35.9992 84.2602 35.0687 83.2835 34.5102 82.0929C34.2819 81.5735 34.1641 81.0123 34.1641 80.4449C34.1641 79.8775 34.2819 79.3163 34.5102 78.7969C35.0636 77.5842 35.9849 76.5765 37.1432 75.9169C39.3501 74.5605 41.8803 73.8208 44.4702 73.7749ZM46.8022 80.4059C46.7603 80.1867 46.6655 79.9811 46.5261 79.8068C46.3866 79.6326 46.2068 79.4949 46.0022 79.4059C45.4973 79.1086 44.9222 78.9515 44.3362 78.9509C43.792 78.9302 43.2535 79.0681 42.7862 79.3479C42.4022 79.5349 42.1552 79.9209 42.1462 80.3479C42.2042 80.7929 42.4912 81.1749 42.9012 81.3549C43.4173 81.6498 44.004 81.7984 44.5982 81.7849C45.1695 81.7993 45.7333 81.6527 46.2252 81.3619C46.5982 81.1919 46.8352 80.8159 46.8282 80.4059" fill="#3E2928"/>
</g>
<defs>
<filter id="filter0_d" x="-27.0708" y="54.4759" width="144.678" height="140.947" filterUnits="userSpaceOnUse" color-interpolation-filters="sRGB">
<feFlood flood-opacity="0" result="BackgroundImageFix"/>
<feColorMatrix in="SourceAlpha" type="matrix" values="0 0 0 0 0 0 0 0 0 0 0 0 0 0 0 0 0 0 127 0"/>
<feOffset dy="25"/>
<feGaussianBlur stdDeviation="25"/>
<feColorMatrix type="matrix" values="0 0 0 0 0.209139 0 0 0 0 0.0691446 0 0 0 0 0.478091 0 0 0 0.497159 0"/>
<feBlend mode="normal" in2="BackgroundImageFix" result="effect1_dropShadow"/>
<feBlend mode="normal" in="SourceGraphic" in2="effect1_dropShadow" result="shape"/>
</filter>
<linearGradient id="paint0_linear" x1="136.632" y1="101.866" x2="129.637" y2="111.343" gradientUnits="userSpaceOnUse">
<stop stop-color="#78B46A"/>
<stop offset="0.03" stop-color="#7F3500"/>
<stop offset="1" stop-color="white"/>
</linearGradient>
<linearGradient id="paint1_linear" x1="110.742" y1="143.213" x2="96.0606" y2="159.307" gradientUnits="userSpaceOnUse">
<stop stop-color="#78B46A"/>
<stop offset="0.03" stop-color="#7F3500"/>
<stop offset="1" stop-color="white"/>
</linearGradient>
<linearGradient id="paint2_linear" x1="78.8367" y1="75.6808" x2="67.8339" y2="87.7446" gradientUnits="userSpaceOnUse">
<stop stop-color="#78B46A"/>
<stop offset="0.03" stop-color="#7F3500"/>
<stop offset="1" stop-color="white"/>
</linearGradient>
<linearGradient id="paint3_linear" x1="181.577" y1="75.8167" x2="174.979" y2="71.0059" gradientUnits="userSpaceOnUse">
<stop stop-color="white" stop-opacity="0"/>
<stop offset="0.99" stop-color="#DC841E"/>
</linearGradient>
<linearGradient id="paint4_linear" x1="54.4955" y1="111.15" x2="39.6012" y2="127.479" gradientUnits="userSpaceOnUse">
<stop stop-color="#78B46A"/>
<stop offset="0.03" stop-color="#7F3500"/>
<stop offset="1" stop-color="white"/>
</linearGradient>
<clipPath id="clip0">
<rect width="240" height="196" fill="white"/>
</clipPath>
</defs>
</svg>
